<?xml version="1.0" encoding="UTF-8" standalone="no"?>
<svg
   xmlns:dc="http://purl.org/dc/elements/1.1/"
   xmlns:cc="http://creativecommons.org/ns#"
   xmlns:rdf="http://www.w3.org/1999/02/22-rdf-syntax-ns#"
   xmlns:svg="http://www.w3.org/2000/svg"
   xmlns="http://www.w3.org/2000/svg"
   xmlns:sodipodi="http://sodipodi.sourceforge.net/DTD/sodipodi-0.dtd"
   xmlns:inkscape="http://www.inkscape.org/namespaces/inkscape"
   version="1.2"
   width="45.696987mm"
   height="32.248714mm"
   viewBox="0 0 26.00411 18.351299"
   id="svg80"
   sodipodi:docname="simple_with_staff_names.svg"
   inkscape:version="0.92.3 (2405546, 2018-03-11)">
  <metadata
     id="metadata86">
    <rdf:RDF>
      <cc:Work
         rdf:about="">
        <dc:format>image/svg+xml</dc:format>
        <dc:type
           rdf:resource="http://purl.org/dc/dcmitype/StillImage" />
      </cc:Work>
    </rdf:RDF>
  </metadata>
  <defs
     id="defs84" />
  <sodipodi:namedview
     pagecolor="#ffffff"
     bordercolor="#666666"
     borderopacity="1"
     objecttolerance="10"
     gridtolerance="10"
     guidetolerance="10"
     inkscape:pageopacity="0"
     inkscape:pageshadow="2"
     inkscape:window-width="1920"
     inkscape:window-height="1043"
     id="namedview82"
     showgrid="false"
     inkscape:zoom="0.2102413"
     inkscape:cx="357.16919"
     inkscape:cy="-413.70719"
     inkscape:window-x="0"
     inkscape:window-y="18"
     inkscape:window-maximized="0"
     inkscape:current-layer="svg80" />
  <!-- Page: 1/1 -->
  <text
     font-size="2.2001"
     id="text4"
     style="font-size:2.20009995px;font-family:'Century Schoolbook L';text-anchor:start;fill:currentColor"
     x="-0.28390288"
     y="-1.0193001">
    <tspan
       id="tspan2" />
  </text>
  <line
     x1="8.301897"
     y1="8.0179996"
     x2="25.953398"
     y2="8.0179996"
     id="line6"
     style="stroke:currentColor;stroke-width:0.1;stroke-linecap:round;stroke-linejoin:round" />
  <line
     x1="8.301897"
     y1="7.0180001"
     x2="25.953398"
     y2="7.0180001"
     id="line8"
     style="stroke:currentColor;stroke-width:0.1;stroke-linecap:round;stroke-linejoin:round" />
  <line
     x1="8.301897"
     y1="6.0180001"
     x2="25.953398"
     y2="6.0180001"
     id="line10"
     style="stroke:currentColor;stroke-width:0.1;stroke-linecap:round;stroke-linejoin:round" />
  <line
     x1="8.301897"
     y1="5.0180001"
     x2="25.953398"
     y2="5.0180001"
     id="line12"
     style="stroke:currentColor;stroke-width:0.1;stroke-linecap:round;stroke-linejoin:round" />
  <line
     x1="8.301897"
     y1="4.0180001"
     x2="25.953398"
     y2="4.0180001"
     id="line14"
     style="stroke:currentColor;stroke-width:0.1;stroke-linecap:round;stroke-linejoin:round" />
  <rect
     x="16.622896"
     y="8.9180002"
     width="1.9743"
     height="0.2"
     ry="0.1"
     id="rect16"
     style="fill:currentColor" />
  <line
     x1="8.301897"
     y1="17.018"
     x2="25.953398"
     y2="17.018"
     id="line18"
     style="stroke:currentColor;stroke-width:0.1;stroke-linecap:round;stroke-linejoin:round" />
  <line
     x1="8.301897"
     y1="16.018"
     x2="25.953398"
     y2="16.018"
     id="line20"
     style="stroke:currentColor;stroke-width:0.1;stroke-linecap:round;stroke-linejoin:round" />
  <line
     x1="8.301897"
     y1="15.018"
     x2="25.953398"
     y2="15.018"
     id="line22"
     style="stroke:currentColor;stroke-width:0.1;stroke-linecap:round;stroke-linejoin:round" />
  <line
     x1="8.301897"
     y1="14.018"
     x2="25.953398"
     y2="14.018"
     id="line24"
     style="stroke:currentColor;stroke-width:0.1;stroke-linecap:round;stroke-linejoin:round" />
  <line
     x1="8.301897"
     y1="13.018"
     x2="25.953398"
     y2="13.018"
     id="line26"
     style="stroke:currentColor;stroke-width:0.1;stroke-linecap:round;stroke-linejoin:round" />
  <path
     d="m 20.854997,7.9659999 c 0.224,0 0.436,0.116 0.436,0.364 0,0.288 -0.224,0.484 -0.412,0.596 -0.144,0.084 -0.304,0.144 -0.468,0.144 -0.224,0 -0.436,-0.116 -0.436,-0.364 0,-0.288 0.224,-0.484 0.412,-0.596 0.144,-0.084 0.304,-0.144 0.468,-0.144 z"
     id="path28"
     inkscape:connector-curvature="0"
     style="fill:currentColor;stroke-width:0.004" />
  <path
     d="m 20.854997,14.466 c 0.224,0 0.436,0.116 0.436,0.364 0,0.288 -0.224,0.484 -0.412,0.596 -0.144,0.084 -0.304,0.144 -0.468,0.144 -0.224,0 -0.436,-0.116 -0.436,-0.364 0,-0.288 0.224,-0.484 0.412,-0.596 0.144,-0.084 0.304,-0.144 0.468,-0.144 z"
     id="path30"
     inkscape:connector-curvature="0"
     style="fill:currentColor;stroke-width:0.004" />
  <rect
     x="21.161198"
     y="5.0180001"
     width="0.13"
     height="3.3122001"
     ry="0.039999999"
     id="rect32"
     style="fill:currentColor" />
  <rect
     x="19.974997"
     y="15.2058"
     width="0.13"
     height="3.1454999"
     ry="0.039999999"
     id="rect34"
     style="fill:currentColor" />
  <path
     d="m 23.869197,7.4659999 c 0.224,0 0.436,0.116 0.436,0.364 0,0.288 -0.224,0.484 -0.412,0.596 -0.144,0.084 -0.304,0.144 -0.468,0.144 -0.224,0 -0.436,-0.116 -0.436,-0.364 0,-0.288 0.224,-0.484 0.412,-0.596 0.144,-0.084 0.304,-0.144 0.468,-0.144 z"
     id="path36"
     inkscape:connector-curvature="0"
     style="fill:currentColor;stroke-width:0.004" />
  <path
     d="m 23.869197,13.966 c 0.224,0 0.436,0.116 0.436,0.364 0,0.288 -0.224,0.484 -0.412,0.596 -0.144,0.084 -0.304,0.144 -0.468,0.144 -0.224,0 -0.436,-0.116 -0.436,-0.364 0,-0.288 0.224,-0.484 0.412,-0.596 0.144,-0.084 0.304,-0.144 0.468,-0.144 z"
     id="path38"
     inkscape:connector-curvature="0"
     style="fill:currentColor;stroke-width:0.004" />
  <rect
     x="24.175398"
     y="4.5180001"
     width="0.13"
     height="3.3122001"
     ry="0.039999999"
     id="rect40"
     style="fill:currentColor" />
  <rect
     x="22.989197"
     y="14.7058"
     width="0.13"
     height="3.3122001"
     ry="0.039999999"
     id="rect42"
     style="fill:currentColor" />
  <rect
     x="18.137997"
     y="12.018"
     width="0.13"
     height="3.3122001"
     ry="0.039999999"
     id="rect44"
     style="fill:currentColor" />
  <text
     font-size="2.2001"
     id="text48"
     style="font-size:2.20009995px;font-family:'Century Schoolbook L';text-anchor:start;fill:currentColor"
     x="0.90929711"
     y="6.8032999">
    <tspan
       id="tspan46">Pit</tspan>
  </text>
  <text
     font-size="2.2001"
     id="text52"
     style="font-size:2.20009995px;font-family:'Century Schoolbook L';text-anchor:start;fill:currentColor"
     x="-0.063802898"
     y="15.8033">
    <tspan
       id="tspan50">Herr</tspan>
  </text>
  <path
     d="m 7.8318971,12.51 c 0,1.044 -0.408,2.064 -0.408,3.06 0,0.54 0.12,1.044 0.516,1.44 0.06,0.06 -0.036,0.156 -0.096,0.096 -0.528,-0.54 -0.708,-1.248 -0.708,-2.004 0,-1.068 0.432,-2.112 0.432,-3.12 0,-0.54 -0.132,-1.044 -0.516,-1.44 -0.012,-0.012 -0.012,-0.012 -0.012,-0.024 0,-0.012 0,-0.012 0.012,-0.024 0.384,-0.396 0.516,-0.9000001 0.516,-1.4400001 0,-1.008 -0.432,-2.052 -0.432,-3.12 0,-0.756 0.18,-1.464 0.708,-2.004 0.06,-0.06 0.156,0.036 0.096,0.096 -0.396,0.396 -0.516,0.9 -0.516,1.44 0,0.996 0.408,2.016 0.408,3.06 0,0.744 -0.18,1.452 -0.696,1.9920001 0.516,0.54 0.696,1.248 0.696,1.992 z"
     id="path54"
     inkscape:connector-curvature="0"
     style="fill:currentColor;stroke-width:0.004" />
  <rect
     x="8.1918974"
     y="3.9679997"
     width="0.16"
     height="13.1"
     ry="0.050000001"
     id="rect56"
     style="fill:currentColor" />
  <path
     d="m 17.831897,8.4659999 c 0.224,0 0.436,0.116 0.436,0.364 0,0.288 -0.224,0.484 -0.412,0.596 -0.144,0.084 -0.304,0.144 -0.468,0.144 -0.224,0 -0.436,-0.116 -0.436,-0.364 0,-0.288 0.224,-0.484 0.412,-0.596 0.144,-0.084 0.304,-0.144 0.468,-0.144 z"
     id="path58"
     inkscape:connector-curvature="0"
     style="fill:currentColor;stroke-width:0.004" />
  <path
     d="m 10.115897,9.5579999 h -0.024 c -0.4319999,0 -0.7799999,-0.352 -0.7799999,-0.788 0,-0.232 0.212,-0.412 0.448,-0.412 0.216,0 0.3799999,0.188 0.3799999,0.412 0,0.208 -0.1719999,0.38 -0.3799999,0.38 -0.044,0 -0.084,-0.008 -0.124,-0.024 0.104,0.156 0.272,0.26 0.4679999,0.26 h 0.016 z m 0.78,-1.728 c 0.272,-0.096 0.452,-0.38 0.452,-0.656 0,-0.36 -0.264,-0.716 -0.692,-0.76 0.096,0.464 0.184,0.924 0.24,1.416 z m -1.5479999,-0.924 c 0,0.54 0.516,0.988 1.0559999,0.988 0.112,0 0.22,-0.008 0.328,-0.024 -0.056,-0.508 -0.148,-0.98 -0.252,-1.456 -0.316,0.032 -0.4959999,0.244 -0.4959999,0.476 0,0.176 0.1,0.364 0.3239999,0.492 0.02,0.02 0.028,0.04 0.028,0.06 0,0.044 -0.04,0.088 -0.088,0.088 -0.012,0 -0.024,-0.004 -0.036,-0.008 -0.3199999,-0.172 -0.4679999,-0.46 -0.4679999,-0.74 0,-0.352 0.232,-0.696 0.6399999,-0.788 -0.056,-0.232 -0.116,-0.468 -0.184,-0.7 -0.4279999,0.484 -0.8519999,0.972 -0.8519999,1.612 z m 1.0439999,1.16 c -0.7519999,0 -1.3319999,-0.688 -1.3319999,-1.496 0,-0.708 0.524,-1.224 0.9919999,-1.764 -0.076,-0.248 -0.1479999,-0.5 -0.1799999,-0.76 -0.024,-0.208 -0.028,-0.416 -0.028,-0.624 0,-0.46 0.2199999,-0.896 0.5959999,-1.168 0.024,-0.02 0.056,-0.02 0.08,0 0.284,0.336 0.532,0.98 0.532,1.432 0,0.572 -0.344,1.02 -0.72,1.456 0.084,0.272 0.156,0.552 0.224,0.828 0.016,0 0.036,-0.004 0.052,-0.004 0.62,0 1.024,0.512 1.024,1.044 0,0.304 -0.132,0.616 -0.428,0.84 -0.088,0.068 -0.188,0.112 -0.292,0.144 0.012,0.14 0.02,0.28 0.02,0.42 0,0.076 -0.004,0.156 -0.008,0.232 -0.028,0.476 -0.352,0.9 -0.808,0.912 l 0.004,-0.172 c 0.372,-0.008 0.612,-0.368 0.636,-0.764 0.004,-0.072 0.008,-0.148 0.008,-0.22 0,-0.124 -0.004,-0.244 -0.016,-0.368 -0.116,0.02 -0.232,0.032 -0.356,0.032 z m 0.372,-4.712 c 0,-0.22 -0.016,-0.316 -0.08,-0.516 -0.396,0.192 -0.648,0.596 -0.648,1.036 0,0.296 0.072,0.532 0.144,0.776 0.32,-0.388 0.584,-0.792 0.584,-1.296 z"
     id="path60"
     inkscape:connector-curvature="0"
     style="fill:currentColor;stroke-width:0.004" />
  <path
     d="m 17.831897,14.966 c 0.224,0 0.436,0.116 0.436,0.364 0,0.288 -0.224,0.484 -0.412,0.596 -0.144,0.084 -0.304,0.144 -0.468,0.144 -0.224,0 -0.436,-0.116 -0.436,-0.364 0,-0.288 0.224,-0.484 0.412,-0.596 0.144,-0.084 0.304,-0.144 0.468,-0.144 z"
     id="path62"
     inkscape:connector-curvature="0"
     style="fill:currentColor;stroke-width:0.004" />
  <path
     d="m 11.279897,14.518 c 0,-0.112 0.092,-0.204 0.204,-0.204 0.112,0 0.204,0.092 0.204,0.204 0,0.112 -0.092,0.204 -0.204,0.204 -0.112,0 -0.204,-0.092 -0.204,-0.204 z m 0,-1 c 0,-0.112 0.092,-0.204 0.204,-0.204 0.112,0 0.204,0.092 0.204,0.204 0,0.112 -0.092,0.204 -0.204,0.204 -0.112,0 -0.204,-0.092 -0.204,-0.204 z M 9.9798971,12.966 c 0.6879999,0 1.1719999,0.352 1.1719999,1.004 0,1.052 -1.052,1.656 -2.0639999,2.084 -0.012,0.012 -0.024,0.016 -0.036,0.016 -0.028,0 -0.052,-0.024 -0.052,-0.052 0,-0.012 0.004,-0.024 0.016,-0.036 0.808,-0.472 1.6479999,-1.06 1.6479999,-1.972 0,-0.48 -0.252,-0.94 -0.6839999,-0.94 -0.296,0 -0.516,0.216 -0.616,0.504 0.044,-0.02 0.088,-0.032 0.136,-0.032 0.22,0 0.4,0.18 0.4,0.4 0,0.232 -0.176,0.424 -0.4,0.424 -0.24,0 -0.448,-0.188 -0.448,-0.424 0,-0.532 0.408,-0.976 0.928,-0.976 z"
     id="path64"
     inkscape:connector-curvature="0"
     style="fill:currentColor;stroke-width:0.004" />
  <path
     d="m 14.687897,5.9099999 c -0.196,0 -0.3,-0.168 -0.3,-0.3 0,-0.152 0.108,-0.308 0.288,-0.308 0.016,0 0.036,0 0.056,0.004 -0.112,-0.148 -0.288,-0.236 -0.48,-0.236 -0.424,0 -0.452,0.292 -0.452,0.744 v 0.204 0.204 c 0,0.452 0.028,0.748 0.452,0.748 0.32,0 0.556,-0.28 0.632,-0.604 0.008,-0.028 0.028,-0.04 0.048,-0.04 0.024,0 0.052,0.016 0.052,0.048 0,0.376 -0.42,0.696 -0.732,0.696 -0.272,0 -0.548,-0.084 -0.736,-0.28 -0.196,-0.204 -0.264,-0.488 -0.264,-0.772 0,-0.284 0.068,-0.568 0.264,-0.772 0.188,-0.196 0.464,-0.276 0.736,-0.276 0.348,0 0.64,0.252 0.7,0.596 0.004,0.02 0.004,0.04 0.004,0.056 0,0.16 -0.12,0.288 -0.268,0.288 z"
     id="path66"
     inkscape:connector-curvature="0"
     style="fill:currentColor;stroke-width:0.004" />
  <path
     d="m 14.687897,14.91 c -0.196,0 -0.3,-0.168 -0.3,-0.3 0,-0.152 0.108,-0.308 0.288,-0.308 0.016,0 0.036,0 0.056,0.004 -0.112,-0.148 -0.288,-0.236 -0.48,-0.236 -0.424,0 -0.452,0.292 -0.452,0.744 v 0.204 0.204 c 0,0.452 0.028,0.748 0.452,0.748 0.32,0 0.556,-0.28 0.632,-0.604 0.008,-0.028 0.028,-0.04 0.048,-0.04 0.024,0 0.052,0.016 0.052,0.048 0,0.376 -0.42,0.696 -0.732,0.696 -0.272,0 -0.548,-0.084 -0.736,-0.28 -0.196,-0.204 -0.264,-0.488 -0.264,-0.772 0,-0.284 0.068,-0.568 0.264,-0.772 0.188,-0.196 0.464,-0.276 0.736,-0.276 0.348,0 0.64,0.252 0.7,0.596 0.004,0.02 0.004,0.04 0.004,0.056 0,0.16 -0.12,0.288 -0.268,0.288 z"
     id="path68"
     inkscape:connector-curvature="0"
     style="fill:currentColor;stroke-width:0.004" />
  <rect
     x="14.308197"
     y="4.4408921e-16"
     width="0.1158"
     height="2.5113001"
     ry="0.019300001"
     id="rect70"
     style="fill:currentColor" />
  <path
     d="m 14.033097,2.1722999 c 0.2052,0 0.4032,0.1116 0.4032,0.3384 0,0.2592 -0.198,0.4356 -0.3672,0.5364 -0.126,0.0756 -0.2664,0.126 -0.414,0.126 -0.2052,0 -0.4032,-0.1116 -0.4032,-0.3384 0,-0.2592 0.198,-0.4356 0.3672,-0.5364 0.126,-0.0756 0.2664,-0.126 0.414,-0.126 z"
     id="path72"
     inkscape:connector-curvature="0"
     style="fill:currentColor;stroke-width:0.0036" />
  <text
     font-size="2.2001"
     id="text76"
     style="font-size:2.20009995px;font-family:'Century Schoolbook L';text-anchor:start;fill:currentColor"
     x="14.423997"
     y="3.1662998">
    <tspan
       id="tspan74">= 100</tspan>
  </text>
  <rect
     x="18.137997"
     y="5.5180001"
     width="0.13"
     height="3.3122001"
     ry="0.039999999"
     id="rect78"
     style="fill:currentColor" />
</svg>
